<svg xmlns="http://www.w3.org/2000/svg" xmlns:xlink="http://www.w3.org/1999/xlink" viewBox="0 0 45.06999969482422 50.400001525878906"><path transform="translate(-2.16 50.400000000000006)" d="M4.82-25.20L4.82-25.20Q4.82-20.52 6.41-16.42Q7.99-12.31 10.69-9.25Q13.39-6.19 16.99-4.43Q20.59-2.66 24.70-2.66L24.70-2.66L24.70 0Q20.02 0 15.91-1.98Q11.81-3.96 8.75-7.38Q5.69-10.80 3.92-15.41Q2.16-20.02 2.16-25.20L2.16-25.20Q2.16-30.38 3.92-34.99Q5.69-39.60 8.75-43.02Q11.81-46.44 15.91-48.42Q20.02-50.40 24.70-50.40L24.70-50.40L24.70-47.74Q20.59-47.74 16.99-45.97Q13.39-44.21 10.69-41.15Q7.99-38.09 6.41-33.98Q4.82-29.88 4.82-25.20ZM22.61-44.86L22.61-44.86L22.61-5.62Q19.37-6.91 16.63-8.89Q13.90-10.87 11.92-13.43Q9.94-15.98 8.86-18.97Q7.78-21.96 7.78-25.27L7.78-25.27Q7.78-28.80 9.04-31.97Q10.30-35.14 12.46-37.80L12.46-37.80L15.48-35.21Q13.75-33.05 12.82-30.53Q11.88-28.01 11.88-25.27L11.88-25.27Q11.88-21.46 13.61-18.11Q15.34-14.76 18.43-12.24L18.43-12.24L18.43-42.84Q20.52-44.14 22.61-44.86ZM24.70-47.74L24.70-50.40Q29.38-50.40 33.48-48.42Q37.58-46.44 40.64-43.02Q43.70-39.60 45.47-34.99Q47.23-30.38 47.23-25.20L47.23-25.20Q47.23-20.02 45.47-15.41Q43.70-10.80 40.64-7.38Q37.58-3.96 33.48-1.98Q29.38 0 24.70 0L24.70 0L24.70-2.66Q28.80-2.66 32.44-4.43Q36.07-6.19 38.77-9.25Q41.47-12.31 43.02-16.42Q44.57-20.52 44.57-25.20L44.57-25.20Q44.57-29.88 43.02-33.98Q41.47-38.09 38.77-41.15Q36.07-44.21 32.44-45.97Q28.80-47.74 24.70-47.74L24.70-47.74ZM41.26-26.35L36-21.89L36-12.02Q34.06-9.86 31.90-8.42L31.90-8.42L31.90-21.96L26.50-26.71L26.50-44.86Q27.65-44.28 28.66-43.63Q29.66-42.98 30.67-42.19L30.67-42.19L30.67-28.08L33.91-25.27L37.01-27.72Q36.65-29.81 35.78-31.68Q34.92-33.55 33.70-35.21L33.70-35.21L36.58-37.80Q38.66-35.28 39.96-32.18Q41.26-29.09 41.26-26.35L41.26-26.35Z"></path></svg>